<svg width="50" height="50" viewBox="0 0 50 50" fill="none" xmlns="http://www.w3.org/2000/svg">
<g clip-path="url(#clip0_1_2)">
<path d="M2.34375 14.0625L14.8438 1.5625V9.375H47.6562V18.75H14.8438V26.5625L2.34375 14.0625Z" fill="#717171"/>
<path d="M9.43086 31.99C9.43086 32.0875 9.35503 32.1958 9.20336 32.315C9.05169 32.4342 8.96503 32.5208 8.94336 32.575C8.66169 33.1058 8.53169 34.1513 8.55336 35.7113L8.56961 36.345C8.60211 36.3342 8.64003 36.3287 8.68336 36.3287C8.84586 36.3287 8.99753 36.4208 9.13836 36.605C9.29003 36.7892 9.36586 36.9679 9.36586 37.1412C9.36586 37.2713 9.26294 37.3633 9.05711 37.4175C8.89461 37.45 8.73211 37.4825 8.56961 37.515C8.58044 38.0242 8.59128 38.5388 8.60211 39.0588C8.62378 39.7196 8.69419 40.2125 8.81336 40.5375C8.90003 40.8083 8.94336 40.9871 8.94336 41.0738C8.94336 41.2904 8.86211 41.4908 8.69961 41.675C8.53711 41.8483 8.34753 41.935 8.13086 41.935C7.71919 41.935 7.44836 41.7183 7.31836 41.285C7.29669 41.1983 7.24794 40.8192 7.17211 40.1475C7.15044 39.9092 7.13961 39.6221 7.13961 39.2863V38.62C7.12878 38.1758 7.10169 37.8129 7.05836 37.5312C6.43003 37.5529 5.68253 37.645 4.81586 37.8075C4.06836 37.9483 3.32628 38.0892 2.58961 38.23C2.63294 38.3708 2.65461 38.9558 2.65461 39.985C2.65461 40.8083 2.77919 41.35 3.02836 41.61C3.06086 41.6642 3.07711 41.7183 3.07711 41.7725C3.07711 42.0542 2.86044 42.195 2.42711 42.195C2.02628 42.195 1.71211 42.0704 1.48461 41.8213C1.34378 41.6696 1.20836 40.5429 1.07836 38.4412C0.872526 38.3979 0.710026 38.2733 0.590859 38.0675C0.471693 37.8617 0.412109 37.645 0.412109 37.4175C0.412109 37.2875 0.482526 37.2008 0.623359 37.1575C0.764193 37.1033 0.899609 37.0546 1.02961 37.0113C1.04044 36.8704 1.06211 36.6158 1.09461 36.2475C1.12711 35.9333 1.14336 35.6842 1.14336 35.5C1.14336 33.5933 1.24628 32.38 1.45211 31.86C1.62544 31.4375 1.92336 31.2263 2.34586 31.2263C2.60586 31.2263 2.84961 31.3129 3.07711 31.4863C3.30461 31.6488 3.41836 31.8546 3.41836 32.1038C3.41836 32.2338 3.37503 32.3963 3.28836 32.5913C3.16919 32.8513 3.10419 33.0029 3.09336 33.0463C2.80086 33.9563 2.65461 35.0396 2.65461 36.2963C2.65461 36.5021 2.65461 36.6267 2.65461 36.67C2.75211 36.6592 3.00669 36.6158 3.41836 36.54C4.69669 36.28 5.89919 36.15 7.02586 36.15C7.05836 34.5575 7.10169 33.5283 7.15586 33.0625C7.34003 31.5025 7.71378 30.7225 8.27711 30.7225C8.61294 30.7225 8.88919 30.8525 9.10586 31.1125C9.32253 31.3617 9.43086 31.6542 9.43086 31.99ZM19.2626 39.1238C19.2626 39.6438 19.0297 39.9092 18.5639 39.92C18.618 40.1692 18.7372 40.505 18.9214 40.9275C18.9105 41.1658 18.813 41.3608 18.6289 41.5125C18.4447 41.6642 18.228 41.74 17.9789 41.74C17.7839 41.74 17.5564 41.6804 17.2964 41.5613C17.1555 41.2796 17.0851 40.9438 17.0851 40.5538C17.0851 40.4563 17.0905 40.3154 17.1014 40.1313C17.1122 39.9471 17.1176 39.8117 17.1176 39.725C17.1176 39.8008 16.9389 39.8388 16.5814 39.8388C15.9747 39.8388 15.2543 39.8658 14.4201 39.92C13.2285 39.985 12.5785 40.0771 12.4701 40.1962C12.3726 40.3154 12.3076 40.895 12.2751 41.935C12.1343 42.1408 11.9555 42.2437 11.7389 42.2437C11.5114 42.2437 11.2785 42.1517 11.0401 41.9675C10.8018 41.7725 10.6826 41.5667 10.6826 41.35C10.6826 41.2742 10.7801 40.9708 10.9751 40.44C11.1918 39.6708 11.5439 38.5171 12.0314 36.9788C13.483 33.0029 14.691 31.015 15.6551 31.015C16.5976 31.015 17.3235 32.0658 17.8326 34.1675C18.0601 35.11 18.2714 36.5563 18.4664 38.5063C18.748 38.5713 18.9268 38.6254 19.0026 38.6688C19.176 38.7663 19.2626 38.9179 19.2626 39.1238ZM16.9876 38.5063C16.511 34.7254 16.083 32.835 15.7039 32.835C15.4005 32.835 14.8697 33.7233 14.1114 35.5C13.5697 36.7783 13.1418 37.8888 12.8276 38.8313C13.1743 38.7554 13.6889 38.6633 14.3714 38.555C14.9889 38.4792 15.861 38.4629 16.9876 38.5063ZM29.3523 38.23C29.3523 38.8583 29.2061 39.4379 28.9136 39.9688C28.6319 40.4888 28.269 40.9383 27.8248 41.3175C27.3807 41.6967 26.8823 41.9892 26.3298 42.195C25.7773 42.4117 25.2357 42.52 24.7048 42.52C24.0223 42.52 23.3778 42.4225 22.7711 42.2275C22.1753 42.0325 21.6282 41.6913 21.1298 41.2038C20.9023 40.9871 20.7236 40.7812 20.5936 40.5862C20.4744 40.3804 20.4148 40.18 20.4148 39.985C20.4148 39.8008 20.4961 39.6383 20.6586 39.4975C20.8319 39.3458 21.0107 39.27 21.1948 39.27C21.509 39.27 21.7419 39.4163 21.8936 39.7088C22.0236 39.9904 22.1536 40.2396 22.2836 40.4563C22.4136 40.6621 22.5653 40.8354 22.7386 40.9763C22.9119 41.1171 23.1123 41.22 23.3398 41.285C23.5782 41.35 23.8653 41.3825 24.2011 41.3825C24.5694 41.3825 24.9594 41.3013 25.3711 41.1388C25.7936 40.9763 26.1782 40.7542 26.5248 40.4725C26.8715 40.1908 27.1586 39.8658 27.3861 39.4975C27.6136 39.1292 27.7273 38.7392 27.7273 38.3275C27.7273 38.0892 27.6623 37.8617 27.5323 37.645C27.4132 37.4283 27.2507 37.2388 27.0448 37.0763C26.839 36.9138 26.6007 36.7838 26.3298 36.6863C26.059 36.5888 25.7773 36.54 25.4848 36.54C25.4415 36.54 25.3007 36.5779 25.0623 36.6538C24.8348 36.7296 24.5748 36.8163 24.2823 36.9138C23.9898 37.0004 23.6973 37.0817 23.4048 37.1575C23.1123 37.2333 22.8903 37.2713 22.7386 37.2713C22.5219 37.2713 22.3161 37.2225 22.1211 37.125C21.9369 37.0167 21.8448 36.8813 21.8448 36.7188C21.8448 36.4804 21.964 36.2421 22.2023 36.0038C22.4407 35.7654 22.8686 35.6246 23.4861 35.5813C23.8653 35.5596 24.1686 35.5379 24.3961 35.5162C24.6344 35.4838 24.7969 35.4458 24.8836 35.4025C25.0244 35.3483 25.2194 35.2237 25.4686 35.0288C25.7178 34.8229 25.9669 34.59 26.2161 34.33C26.4653 34.0592 26.6819 33.7775 26.8661 33.485C27.0503 33.1817 27.1423 32.9054 27.1423 32.6562C27.1423 32.0604 26.8336 31.7625 26.2161 31.7625C25.9236 31.7625 25.6148 31.8221 25.2898 31.9412C24.9648 32.0496 24.6561 32.1796 24.3636 32.3313C24.0819 32.4829 23.8273 32.6454 23.5998 32.8187C23.3832 32.9812 23.2315 33.1167 23.1448 33.225C23.2098 33.29 23.2423 33.3604 23.2423 33.4363C23.2423 33.5771 23.1773 33.7233 23.0473 33.875C22.9173 34.0158 22.7603 34.1513 22.5761 34.2812C22.4028 34.4004 22.224 34.5033 22.0398 34.59C21.8557 34.6658 21.7148 34.7038 21.6173 34.7038C21.5198 34.7038 21.4223 34.6875 21.3248 34.655C21.2273 34.6117 21.1353 34.5629 21.0486 34.5087C20.9728 34.4437 20.9078 34.3733 20.8536 34.2975C20.7994 34.2108 20.7723 34.1242 20.7723 34.0375C20.7723 33.8425 20.859 33.6204 21.0323 33.3713C21.2057 33.1113 21.4386 32.8513 21.7311 32.5913C22.0236 32.3204 22.354 32.0604 22.7223 31.8113C23.1015 31.5513 23.4915 31.3238 23.8923 31.1287C24.2932 30.9229 24.694 30.7604 25.0948 30.6413C25.5065 30.5221 25.8803 30.4625 26.2161 30.4625C26.5628 30.4625 26.8823 30.5113 27.1748 30.6088C27.4782 30.7063 27.7382 30.8471 27.9548 31.0312C28.1823 31.2154 28.3557 31.4375 28.4748 31.6975C28.6048 31.9575 28.6698 32.25 28.6698 32.575C28.6698 32.7917 28.6103 33.0354 28.4911 33.3063C28.3828 33.5663 28.2365 33.8317 28.0523 34.1025C27.8682 34.3733 27.6623 34.6333 27.4348 34.8825C27.2182 35.1208 26.9961 35.3213 26.7686 35.4838C27.7003 35.6679 28.3611 35.9983 28.7511 36.475C29.1519 36.9517 29.3523 37.5367 29.3523 38.23ZM38.7753 39.1238C38.7753 39.6438 38.5424 39.9092 38.0766 39.92C38.1307 40.1692 38.2499 40.505 38.4341 40.9275C38.4232 41.1658 38.3257 41.3608 38.1416 41.5125C37.9574 41.6642 37.7407 41.74 37.4916 41.74C37.2966 41.74 37.0691 41.6804 36.8091 41.5613C36.6682 41.2796 36.5978 40.9438 36.5978 40.5538C36.5978 40.4563 36.6032 40.3154 36.6141 40.1313C36.6249 39.9471 36.6303 39.8117 36.6303 39.725C36.6303 39.8008 36.4516 39.8388 36.0941 39.8388C35.4874 39.8388 34.767 39.8658 33.9328 39.92C32.7411 39.985 32.0911 40.0771 31.9828 40.1962C31.8853 40.3154 31.8203 40.895 31.7878 41.935C31.647 42.1408 31.4682 42.2437 31.2516 42.2437C31.0241 42.2437 30.7911 42.1517 30.5528 41.9675C30.3145 41.7725 30.1953 41.5667 30.1953 41.35C30.1953 41.2742 30.2928 40.9708 30.4878 40.44C30.7045 39.6708 31.0566 38.5171 31.5441 36.9788C32.9957 33.0029 34.2036 31.015 35.1678 31.015C36.1103 31.015 36.8361 32.0658 37.3453 34.1675C37.5728 35.11 37.7841 36.5563 37.9791 38.5063C38.2607 38.5713 38.4395 38.6254 38.5153 38.6688C38.6886 38.7663 38.7753 38.9179 38.7753 39.1238ZM36.5003 38.5063C36.0236 34.7254 35.5957 32.835 35.2166 32.835C34.9132 32.835 34.3824 33.7233 33.6241 35.5C33.0824 36.7783 32.6545 37.8888 32.3403 38.8313C32.687 38.7554 33.2016 38.6633 33.8841 38.555C34.5016 38.4792 35.3736 38.4629 36.5003 38.5063ZM39.9438 41.35C40.0088 41.2417 40.1334 41.1658 40.3175 41.1225C40.5125 41.0683 40.7834 41.0304 41.13 41.0087C41.3034 40.7812 41.4605 40.4617 41.6013 40.05C41.753 39.6275 41.8884 39.1563 42.0075 38.6363C42.1375 38.1163 42.2513 37.5638 42.3488 36.9788C42.4463 36.3938 42.533 35.825 42.6088 35.2725C42.6846 34.7092 42.7496 34.1892 42.8038 33.7125C42.858 33.225 42.9013 32.8133 42.9338 32.4775C42.9663 32.12 43.0259 31.8329 43.1125 31.6163C43.21 31.3996 43.3238 31.2317 43.4538 31.1125C43.5838 30.9825 43.7192 30.9013 43.86 30.8688C44.0117 30.8254 44.158 30.8038 44.2988 30.8038C44.418 30.8038 44.6292 30.8092 44.9325 30.82C45.2359 30.82 45.5717 30.8254 45.94 30.8363C46.3084 30.8471 46.6767 30.8633 47.045 30.885C47.4242 30.8958 47.7438 30.9121 48.0038 30.9338C48.3613 30.9663 48.5888 31.0746 48.6863 31.2588C48.7838 31.4429 48.8325 31.6162 48.8325 31.7788C48.8325 31.8654 48.8 31.9683 48.735 32.0875C48.6809 32.1958 48.5888 32.2988 48.4588 32.3963C48.3721 33.2412 48.2963 34.0754 48.2313 34.8988C48.1771 35.7221 48.15 36.6104 48.15 37.5637C48.15 38.0837 48.1609 38.6038 48.1825 39.1238C48.215 39.6329 48.2746 40.1313 48.3613 40.6188C48.8055 40.6404 49.0925 40.7 49.2225 40.7975C49.3525 40.895 49.4338 41.0575 49.4663 41.285C49.488 41.48 49.5042 41.6804 49.515 41.8862C49.5259 42.0921 49.5313 42.2762 49.5313 42.4387C49.5313 42.6771 49.515 42.8667 49.4825 43.0075C49.4609 43.1483 49.4175 43.2567 49.3525 43.3325C49.2875 43.4083 49.2063 43.4571 49.1088 43.4787C49.0221 43.5004 48.9138 43.5113 48.7838 43.5113C48.7296 43.5113 48.6592 43.495 48.5725 43.4625C48.4859 43.4408 48.3992 43.4029 48.3125 43.3487C48.2367 43.3054 48.1663 43.2458 48.1013 43.17C48.0363 43.0942 47.9984 43.0075 47.9875 42.91C47.9984 42.8342 48.0038 42.7583 48.0038 42.6825C48.0146 42.6067 48.02 42.5254 48.02 42.4387C48.02 42.3954 48.02 42.3521 48.02 42.3087C48.02 42.2654 48.0146 42.2221 48.0038 42.1787C47.8413 42.1679 47.668 42.1625 47.4838 42.1625C47.2996 42.1625 47.0884 42.1625 46.85 42.1625C46.4492 42.1625 45.9888 42.1679 45.4688 42.1787C44.9488 42.2004 44.4288 42.2275 43.9088 42.26C43.3888 42.2925 42.8959 42.325 42.43 42.3575C41.975 42.4008 41.6067 42.4442 41.325 42.4875C41.325 42.6283 41.3359 42.7854 41.3575 42.9587C41.39 43.1429 41.4225 43.3271 41.455 43.5113C41.4117 43.6737 41.298 43.8037 41.1138 43.9012C40.9296 44.0096 40.7346 44.0637 40.5288 44.0637C40.2688 44.0637 40.0684 43.9933 39.9275 43.8525C39.8842 43.6683 39.8463 43.4354 39.8138 43.1537C39.7813 42.8829 39.765 42.6067 39.765 42.325C39.765 42.13 39.7759 41.9458 39.7975 41.7725C39.83 41.5992 39.8788 41.4583 39.9438 41.35ZM42.9175 40.8138C43.535 40.7813 44.185 40.7542 44.8675 40.7325C45.55 40.7108 46.1838 40.6946 46.7688 40.6837C46.6713 40.0663 46.6009 39.4488 46.5575 38.8313C46.525 38.2138 46.5088 37.58 46.5088 36.93C46.5088 36.5183 46.5088 36.1338 46.5088 35.7763C46.5196 35.4188 46.5305 35.0667 46.5413 34.72C46.5521 34.3733 46.563 34.0213 46.5738 33.6637C46.5955 33.2954 46.6171 32.9 46.6388 32.4775C46.563 32.4775 46.4546 32.4775 46.3138 32.4775C46.1838 32.4775 46.043 32.4775 45.8913 32.4775C45.7505 32.4667 45.6096 32.4613 45.4688 32.4613C45.3388 32.4613 45.2359 32.4613 45.16 32.4613C44.9434 32.4613 44.7755 32.4829 44.6563 32.5263C44.548 32.5696 44.483 32.6671 44.4613 32.8187C44.3421 33.7829 44.2284 34.6658 44.12 35.4675C44.0225 36.2583 43.9142 36.9842 43.795 37.645C43.6867 38.295 43.5621 38.88 43.4213 39.4C43.2805 39.92 43.1125 40.3913 42.9175 40.8138Z" fill="#717171"/>
</g>
<defs>
<clipPath id="clip0_1_2">
<rect width="50" height="50" fill="white"/>
</clipPath>
</defs>
</svg>
