<svg width="450" height="450" viewBox="0 0 500 501" fill="none" xmlns="http://www.w3.org/2000/svg">
<path d="M467.055 243.675C462.142 285.283 443.144 333.661 405.2 355.885C347.871 389.471 352.67 441.128 240.769 463.585C223.322 467.088 206.766 468.562 191.153 468.271C182.76 468.116 174.636 467.439 166.801 466.286C95.683 455.897 47.823 406.462 30.264 346.788C7.157 268.307 53.296 216.927 83.878 185.97C114.46 155.014 136.859 58.5572 246.69 35.6162C263.437 32.1262 280.562 30.3442 297.682 30.7712C336.76 31.7302 379.383 44.5622 408.876 71.3442C411.09 73.3562 413.244 75.4432 415.343 77.5932C456.338 119.669 473.756 186.949 467.055 243.675Z" fill="#05F0AB"/>
<path opacity="0.7" d="M467.055 243.675C462.142 285.283 443.144 333.661 405.2 355.885C347.871 389.471 352.67 441.128 240.769 463.585C223.322 467.088 206.766 468.562 191.153 468.271C182.76 468.116 174.636 467.439 166.801 466.286C95.683 455.897 47.823 406.462 30.264 346.788C7.157 268.307 53.296 216.927 83.878 185.97C114.46 155.014 136.859 58.5572 246.69 35.6162C263.437 32.1262 280.562 30.3442 297.682 30.7712C336.76 31.7302 379.383 44.5622 408.876 71.3442C411.09 73.3562 413.244 75.4432 415.343 77.5932C456.338 119.669 473.756 186.949 467.055 243.675Z" fill="white"/>
<path d="M144.682 71.8972L141.839 81.5332L148.165 89.3382L138.121 89.6122L132.653 98.0402L129.29 88.5732L119.584 85.9762L127.549 79.8522L127.019 69.8192L135.304 75.5012L144.682 71.8972Z" fill="white" stroke="#263238" stroke-miterlimit="10" stroke-linecap="round" stroke-linejoin="round"/>
<path d="M344.788 104.393L338.677 107.409L337.698 114.153L332.941 109.273L326.224 110.425L329.396 104.393L326.224 98.3612L332.941 99.5132L337.698 94.6332L338.677 101.377L344.788 104.393Z" fill="white" stroke="#263238" stroke-miterlimit="10" stroke-linecap="round" stroke-linejoin="round"/>
<path d="M465.365 271.148L460.769 275.95L462.118 282.458L456.132 279.57L450.359 282.865L451.255 276.279L446.338 271.807L452.878 270.624L455.612 264.565L458.758 270.42L465.365 271.148Z" fill="white" stroke="#263238" stroke-miterlimit="10" stroke-linecap="round" stroke-linejoin="round"/>
<path d="M235.329 407.973L228.947 414.289L230.532 423.127L222.553 419.009L214.637 423.247L216.088 414.386L209.611 408.168L218.486 406.809L222.399 398.728L226.434 406.749L235.329 407.973Z" fill="white" stroke="#263238" stroke-miterlimit="10" stroke-linecap="round" stroke-linejoin="round"/>
<path d="M88.242 306.209L87.455 311.03L90.981 314.412L86.152 315.154L84.026 319.551L81.829 315.188L76.989 314.525L80.459 311.087L79.595 306.279L83.937 308.517L88.242 306.209Z" fill="white" stroke="#263238" stroke-miterlimit="10" stroke-linecap="round" stroke-linejoin="round"/>
<path d="M150.669 471.254L147.124 469.204L143.425 470.962L144.279 466.957L141.465 463.983L145.538 463.558L147.496 459.961L149.159 463.704L153.185 464.455L150.139 467.193L150.669 471.254Z" fill="white" stroke="#263238" stroke-miterlimit="10" stroke-linecap="round" stroke-linejoin="round"/>
<path d="M72.85 174.516L68.286 172.968L64.424 175.85L64.486 171.032L60.552 168.25L65.153 166.819L66.583 162.218L69.366 166.152L74.184 166.09L71.302 169.952L72.85 174.516Z" fill="white" stroke="#263238" stroke-miterlimit="10" stroke-linecap="round" stroke-linejoin="round"/>
<path d="M453.393 175.371L449.332 174.842L446.594 177.887L445.843 173.862L442.1 172.199L445.697 170.24L446.121 166.167L449.096 168.982L453.101 168.127L451.343 171.826L453.393 175.371Z" fill="white" stroke="#263238" stroke-miterlimit="10" stroke-linecap="round" stroke-linejoin="round"/>
<path d="M272.955 53.0842L274.754 49.0302L272.434 45.2492L276.846 45.7072L279.724 42.3332L280.652 46.6702L284.751 48.3652L280.912 50.5872L280.567 55.0092L277.267 52.0452L272.955 53.0842Z" fill="white" stroke="#263238" stroke-miterlimit="10" stroke-linecap="round" stroke-linejoin="round"/>
<path d="M243.705 139.907C243.705 139.907 205.671 124.198 165.571 153.55C125.47 182.902 149.448 228.377 160.61 237.472C171.772 246.567 186.61 259.442 228.364 250.761C270.118 242.079 281.739 219.282 281.739 195.305C281.738 171.326 271.816 150.655 243.705 139.907Z" fill="#05F0AB" stroke="#263238" stroke-miterlimit="10" stroke-linecap="round" stroke-linejoin="round"/>
<path d="M260.94 201.983C262.55 204.934 273.759 211.153 278.541 215.038C279.91 211.244 280.782 207.309 281.265 203.299C273.293 201.678 259.426 199.207 260.94 201.983Z" fill="#263238"/>
<path d="M257.42 219.587C256.414 222.353 264.565 227.452 269.05 230.655C272.511 226.915 275.138 222.861 277.083 218.596C270.818 218.591 258.494 216.634 257.42 219.587Z" fill="#263238"/>
<path d="M253.899 234.022C254.025 235.409 255.645 237.611 257.669 239.864C261.003 237.815 263.923 235.592 266.467 233.224C261.09 232.566 253.669 231.494 253.899 234.022Z" fill="#263238"/>
<path d="M171.741 245.67C175.119 247.706 179.014 249.565 183.671 250.976C183.082 248.508 182.367 245.588 181.724 243.176C180.809 239.743 175.58 243.153 171.741 245.67Z" fill="#263238"/>
<path d="M158.327 235.288C159.127 236.155 159.894 236.888 160.609 237.471C162.825 239.277 165.191 241.23 167.878 243.135C168.583 238.892 169.85 232.811 169.401 229.445C168.887 225.59 162.185 232.238 158.327 235.288Z" fill="#263238"/>
<path d="M156.359 232.956C157.887 228.47 161.334 221.132 162.36 216.771C163.462 212.088 154.435 219.905 150.454 223.529C152.339 227.238 154.393 230.436 156.359 232.956Z" fill="#263238"/>
<path d="M248.416 193.219C257.716 192.351 264.842 187.225 264.332 181.771C263.823 176.317 255.871 172.6 246.571 173.469C237.271 174.337 230.144 179.463 230.654 184.917C231.163 190.371 239.115 194.088 248.416 193.219Z" fill="white"/>
<path d="M194.138 192.435C194.648 197.889 187.522 203.015 178.222 203.884C168.922 204.753 160.97 201.036 160.46 195.582C159.95 190.128 167.076 185.002 176.376 184.133C185.676 183.263 193.628 186.98 194.138 192.435Z" fill="white"/>
<path d="M166.811 156.03C166.811 156.03 145.727 139.907 143.247 148.175C140.767 156.443 151.515 173.806 151.515 173.806" fill="#05F0AB"/>
<path d="M166.811 156.03C166.811 156.03 145.727 139.907 143.247 148.175C140.767 156.443 151.515 173.806 151.515 173.806" stroke="#263238" stroke-miterlimit="10" stroke-linecap="round" stroke-linejoin="round"/>
<path d="M242.464 142.801C242.464 142.801 258.173 127.091 264.375 131.225C270.576 135.359 264.788 157.27 264.788 157.27" fill="#05F0AB"/>
<path d="M242.464 142.801C242.464 142.801 258.173 127.091 264.375 131.225C270.576 135.359 264.788 157.27 264.788 157.27" stroke="#263238" stroke-miterlimit="10" stroke-linecap="round" stroke-linejoin="round"/>
<path d="M153.077 170.898C153.077 170.898 143.405 155.316 145.554 150.748C147.703 146.181 164.092 160.42 164.092 160.42" fill="#05F0AB"/>
<path d="M153.077 170.898C153.077 170.898 143.405 155.316 145.554 150.748C147.703 146.181 164.092 160.42 164.092 160.42" stroke="#263238" stroke-miterlimit="10" stroke-linecap="round" stroke-linejoin="round"/>
<path d="M244.959 144.569C244.959 144.569 260.004 133.285 264.034 133.823C268.064 134.36 262.691 155.047 262.691 155.047" fill="#05F0AB"/>
<path d="M244.959 144.569C244.959 144.569 260.004 133.285 264.034 133.823C268.064 134.36 262.691 155.047 262.691 155.047" stroke="#263238" stroke-miterlimit="10" stroke-linecap="round" stroke-linejoin="round"/>
<path d="M216.172 180.597C211.114 181.023 203.315 182.788 203.317 184.063C203.32 186.213 211.109 191.047 214.064 189.435C217.016 187.825 221.307 181.659 220.245 180.839C219.763 180.47 218.184 180.428 216.172 180.597Z" fill="#263238" stroke="#263238" stroke-miterlimit="10" stroke-linecap="round" stroke-linejoin="round"/>
<path d="M184.376 177.883C189.779 177.883 194.481 179.765 196.955 182.546C195.987 178.224 190.971 174.927 184.913 174.927C179.534 174.927 174.976 177.527 173.342 181.134C175.99 179.148 179.948 177.883 184.376 177.883Z" fill="#263238"/>
<path d="M237.573 170.215C232.295 171.371 228.104 174.216 226.283 177.462C226.304 173.033 230.498 168.739 236.416 167.443C241.671 166.292 246.679 167.856 249.047 171.03C246.035 169.656 241.898 169.267 237.573 170.215Z" fill="#263238"/>
<path d="M199.12 192.052C201.601 196.729 206.519 199.914 212.182 199.914C219.323 199.914 225.28 194.849 226.658 188.116" stroke="#263238" stroke-miterlimit="10" stroke-linecap="round" stroke-linejoin="round"/>
<path d="M212.94 189.718L214.463 199.671" stroke="#263238" stroke-miterlimit="10" stroke-linecap="round" stroke-linejoin="round"/>
<path d="M179.584 192.159C179.584 192.159 166.46 188.745 157.531 195.412" stroke="#263238" stroke-miterlimit="10" stroke-linecap="round" stroke-linejoin="round"/>
<path d="M161.009 209.336C169.447 198.385 181.859 198.119 181.859 198.119" stroke="#263238" stroke-miterlimit="10" stroke-linecap="round" stroke-linejoin="round"/>
<path d="M183.889 201.937C183.889 201.937 175.649 205.776 171.825 215.33" stroke="#263238" stroke-miterlimit="10" stroke-linecap="round" stroke-linejoin="round"/>
<path d="M246.395 179.62C246.395 179.62 257.426 171.733 268.15 174.76" stroke="#263238" stroke-miterlimit="10" stroke-linecap="round" stroke-linejoin="round"/>
<path d="M246.405 186C246.405 186 258.089 181.804 269.889 189.007" stroke="#263238" stroke-miterlimit="10" stroke-linecap="round" stroke-linejoin="round"/>
<path d="M245.877 190.291C245.877 190.291 254.946 190.924 261.937 198.475" stroke="#263238" stroke-miterlimit="10" stroke-linecap="round" stroke-linejoin="round"/>
<path d="M178.045 153.896C178.045 153.896 200.816 136.725 231.799 144.564C231.799 144.564 196.337 146.057 178.045 153.896Z" fill="#263238"/>
<path d="M185.138 159.869C185.138 159.869 201.19 147.55 227.693 152.777C227.693 152.777 197.457 155.016 185.138 159.869Z" fill="#263238"/>
<path d="M215.748 157.629C215.748 157.629 199.323 159.122 199.323 160.989C199.323 162.856 206.042 164.349 208.655 163.229C211.268 162.109 215.748 157.629 215.748 157.629Z" fill="#263238"/>
<path d="M228.369 250.748C273.598 240.529 302.971 199.972 293.975 160.163C284.98 120.353 241.023 96.3663 195.794 106.586C150.566 116.806 121.193 157.363 130.188 197.172C139.183 236.981 183.141 260.968 228.369 250.748Z" stroke="#263238" stroke-miterlimit="10" stroke-linecap="round" stroke-linejoin="round"/>
<path d="M240.012 350.248C240.012 350.248 269.875 378.618 290.407 375.632C310.938 372.646 318.031 355.474 318.031 355.474C318.031 355.474 315.418 367.793 321.764 370.032C328.11 372.272 335.203 361.82 332.963 344.648C330.723 327.477 318.405 325.61 318.405 325.61C318.405 325.61 336.696 330.09 290.781 341.662C244.865 353.235 240.012 350.248 240.012 350.248Z" fill="white" stroke="#263238" stroke-miterlimit="10" stroke-linecap="round" stroke-linejoin="round"/>
<path d="M318.404 325.611C318.404 325.611 332.807 329.141 303.945 338.025C308.511 345.608 312.44 357.522 304.494 370.557C314.316 364.455 318.03 355.475 318.03 355.475C318.03 355.475 315.417 367.794 321.763 370.033C328.109 372.273 335.202 361.821 332.962 344.649C330.722 327.477 318.404 325.611 318.404 325.611Z" fill="#05F0AB" stroke="#263238" stroke-miterlimit="10" stroke-linecap="round" stroke-linejoin="round"/>
<path d="M318.03 355.474C318.03 355.474 321.016 350.621 321.39 342.782" stroke="#263238" stroke-miterlimit="10" stroke-linecap="round" stroke-linejoin="round"/>
<path d="M168.34 266.257C168.34 266.257 150.422 260.284 141.09 274.469C131.758 288.654 142.583 310.678 150.049 311.798C157.515 312.918 160.875 294.627 160.875 294.627C160.875 294.627 176.18 308.065 187.006 303.959" fill="white"/>
<path d="M168.34 266.257C168.34 266.257 150.422 260.284 141.09 274.469C131.758 288.654 142.583 310.678 150.049 311.798C157.515 312.918 160.875 294.627 160.875 294.627C160.875 294.627 176.18 308.065 187.006 303.959" stroke="#263238" stroke-miterlimit="10" stroke-linecap="round" stroke-linejoin="round"/>
<path d="M160.559 265.026C154.564 264.841 146.425 266.359 141.089 274.469C131.757 288.654 142.582 310.678 150.048 311.798C157.514 312.918 160.873 294.627 160.873 294.627C160.873 294.627 162.987 296.482 166.197 298.602C171.564 281.184 164.796 269.957 160.559 265.026Z" fill="#05F0AB" stroke="#263238" stroke-miterlimit="10" stroke-linecap="round" stroke-linejoin="round"/>
<path d="M312.809 250.499C312.809 250.499 353.256 235.037 353.256 203.341C353.256 171.645 329.662 149.998 338.089 112.89C346.515 75.7822 386.119 58.7742 416.454 78.1012C446.789 97.4282 435.835 119.074 414.769 146.905C393.703 174.736 401.287 179.375 392.86 210.298C384.434 241.221 357.469 256.683 330.505 260.548C330.505 260.548 319.551 249.726 312.809 250.499Z" fill="#05F0AB" stroke="#263238" stroke-miterlimit="10" stroke-linecap="round" stroke-linejoin="round"/>
<path d="M418.639 141.695C437.055 116.344 444.869 96.2052 416.454 78.1022C394.55 64.1472 367.82 69.1422 351.478 86.9632C371.542 86.4432 404.749 93.4702 418.639 141.695Z" fill="#263238"/>
<path d="M346.741 110.865C355.354 109.776 374.569 110.6 394.349 133.265C395.038 134.054 396.308 133.297 395.919 132.324C392.544 123.865 384.23 107.215 369.859 103.109C357.341 99.5332 349.419 104.162 345.353 107.93C344.133 109.06 345.09 111.074 346.741 110.865Z" fill="#263238"/>
<path d="M342.366 133.532C350.979 132.443 370.194 133.267 389.974 155.932C390.663 156.721 391.933 155.964 391.544 154.991C388.169 146.532 379.855 129.882 365.484 125.776C352.966 122.2 345.044 126.829 340.978 130.597C339.759 131.727 340.715 133.741 342.366 133.532Z" fill="#263238"/>
<path d="M347.974 158.175C353.141 156.868 364.912 155.982 378.657 168.69C379.136 169.133 379.853 168.567 379.544 167.988C376.856 162.953 370.546 153.164 361.483 151.648C353.588 150.327 349.106 153.795 346.91 156.443C346.25 157.238 346.984 158.426 347.974 158.175Z" fill="#263238"/>
<path d="M351.767 179.696C356.316 178.507 366.692 177.754 378.896 189.713C379.321 190.129 379.95 189.606 379.674 189.063C377.271 184.343 371.644 175.158 363.641 173.684C356.669 172.4 352.738 175.611 350.818 178.071C350.24 178.81 350.895 179.924 351.767 179.696Z" fill="#263238"/>
<path d="M379.673 212.922C377.27 208.202 371.643 199.017 363.64 197.543C358.773 196.647 355.391 197.943 353.137 199.643C353.205 200.827 353.251 202.021 353.253 203.233C358.348 202.34 367.876 202.774 378.895 213.572C379.321 213.989 379.95 213.465 379.673 212.922Z" fill="#263238"/>
<path d="M352.65 248.964C353.075 249.38 353.704 248.857 353.428 248.314C351.213 243.963 346.253 235.832 339.222 233.431C337.34 235.273 335.381 236.964 333.415 238.505C338.572 239.157 345.276 241.739 352.65 248.964Z" fill="#263238"/>
<path d="M358.073 217.029C354.908 216.446 352.375 216.795 350.366 217.574C349.62 219.357 348.752 221.067 347.783 222.703C352.901 221.833 362.377 222.326 373.329 233.058C373.754 233.475 374.383 232.951 374.107 232.408C371.703 227.687 366.076 218.503 358.073 217.029Z" fill="#263238"/>
<path d="M162.097 251.465C162.097 251.465 163.868 297.794 200.816 331.957C232.073 360.858 278.834 368.166 319.523 332.704C319.523 332.704 340.427 346.142 362.452 340.17C384.476 334.197 374.771 304.334 374.771 304.334C374.771 304.334 402.576 319.591 399.136 302.044C394.501 278.406 363.946 263.646 357.973 264.765C352 265.885 351.254 272.231 351.254 272.231C351.254 272.231 337.442 253.193 322.137 246.101C306.832 239.009 290.895 237.693 281.506 227.338L277.716 226.316C277.716 226.316 266.89 239.008 250.839 246.847C234.787 254.686 209.777 257.672 198.205 256.553C186.633 255.433 162.742 247.221 162.742 247.221L162.097 251.465Z" fill="white" stroke="#263238" stroke-miterlimit="10" stroke-linecap="round" stroke-linejoin="round"/>
<path d="M178.849 273.903C187.573 275.827 207.754 279.196 230.228 275.538C231.832 275.277 233.373 276.255 233.856 277.808C235.548 283.239 240.346 295.656 251.218 306.006C253.091 307.789 252.221 310.944 249.705 311.54C238.936 314.093 215.044 317.787 189.315 308.866C188.647 308.634 188.075 308.193 187.678 307.609C185.378 304.225 177.424 291.749 174.913 277.642C174.505 275.356 176.582 273.403 178.849 273.903Z" fill="#05F0AB" stroke="#263238" stroke-miterlimit="10" stroke-linecap="round" stroke-linejoin="round"/>
<path d="M196.852 290.479C198.403 295.502 196.76 300.47 193.181 301.576C189.602 302.681 185.443 299.506 183.891 294.483C182.34 289.46 183.983 284.492 187.562 283.386C191.141 282.28 195.3 285.456 196.852 290.479Z" fill="white" stroke="#263238" stroke-miterlimit="10" stroke-linecap="round" stroke-linejoin="round"/>
<path d="M215.413 291.907C216.964 296.93 215.321 301.898 211.742 303.004C208.163 304.11 204.004 300.934 202.452 295.911C200.901 290.888 202.544 285.92 206.123 284.814C209.702 283.708 213.862 286.884 215.413 291.907Z" fill="white" stroke="#263238" stroke-miterlimit="10" stroke-linecap="round" stroke-linejoin="round"/>
<path d="M235.165 293.335C236.716 298.358 235.073 303.326 231.494 304.432C227.915 305.537 223.756 302.362 222.205 297.339C220.654 292.316 222.297 287.348 225.876 286.242C229.455 285.136 233.614 288.312 235.165 293.335Z" fill="white" stroke="#263238" stroke-miterlimit="10" stroke-linecap="round" stroke-linejoin="round"/>
<path d="M310.074 327.506C308.674 326.544 307.391 325.517 306.458 324.49" stroke="#263238" stroke-miterlimit="10" stroke-linecap="round" stroke-linejoin="round"/>
<path d="M319.523 332.703C319.523 332.703 316.861 331.532 313.812 329.815" stroke="#263238" stroke-miterlimit="10" stroke-linecap="round" stroke-linejoin="round"/>
<path d="M268.009 261.031C268.009 261.031 238.146 253.938 227.32 268.87C216.494 283.802 226.573 303.213 238.146 306.573C249.718 309.933 252.331 292.761 252.331 292.761C252.331 292.761 265.396 299.48 277.342 296.494C289.287 293.508 290.78 272.23 283.688 264.764" fill="white"/>
<path d="M268.009 261.031C268.009 261.031 238.146 253.938 227.32 268.87C216.494 283.802 226.573 303.213 238.146 306.573C249.718 309.933 252.331 292.761 252.331 292.761C252.331 292.761 265.396 299.48 277.342 296.494C289.287 293.508 290.78 272.23 283.688 264.764" stroke="#263238" stroke-miterlimit="10" stroke-linecap="round" stroke-linejoin="round"/>
<path d="M277.715 222.209L277.488 221.634C265.623 235.554 248.585 246.192 228.364 250.76C203.645 256.344 179.321 251.694 160.862 239.846L162.097 251.465C180.398 262.733 204.197 267.045 228.364 261.586C250.999 256.472 269.641 243.752 281.505 227.337L277.715 222.209Z" fill="white" stroke="#263238" stroke-miterlimit="10" stroke-linecap="round" stroke-linejoin="round"/>
<path d="M259.685 295.556C267.151 272.977 255.367 263.363 247.314 259.569C239.704 260.239 231.847 262.625 227.32 268.87C216.494 283.802 226.573 303.213 238.146 306.572C249.718 309.932 252.331 292.76 252.331 292.76C252.331 292.76 255.294 294.283 259.685 295.556Z" fill="#05F0AB" stroke="#263238" stroke-miterlimit="10" stroke-linecap="round" stroke-linejoin="round"/>
<path d="M357.973 264.764C352 265.884 351.254 272.23 351.254 272.23C351.254 272.23 368.987 284.947 374.771 304.333C374.771 304.333 402.576 319.59 399.136 302.043C394.5 278.405 363.945 263.644 357.973 264.764Z" fill="#05F0AB" stroke="#263238" stroke-miterlimit="10" stroke-linecap="round" stroke-linejoin="round"/>
<path d="M329.96 250.766C318.078 298.216 264.826 330.276 203.949 324.08C199.736 323.651 195.589 323.048 191.515 322.283C194.095 325.293 196.895 328.256 199.946 331.137C200.876 331.259 201.807 331.38 202.743 331.485C266.747 338.683 318.846 308.774 338.63 258.016C335.992 255.498 333.058 252.987 329.96 250.766Z" fill="#05F0AB" stroke="#263238" stroke-miterlimit="10" stroke-linecap="round" stroke-linejoin="round"/>
<path d="M329.963 250.757C327.443 248.951 324.814 247.34 322.137 246.099C306.832 239.006 290.895 237.691 281.505 227.336L277.715 226.314C277.715 226.314 266.889 239.006 250.838 246.845C234.787 254.684 209.776 257.67 198.204 256.551C186.632 255.431 162.741 247.219 162.741 247.219L162.097 251.464C162.097 251.464 163.56 289.673 191.502 322.279C195.58 323.045 199.732 323.649 203.95 324.079C264.83 330.277 318.085 298.212 329.963 250.757Z" stroke="#263238" stroke-miterlimit="10" stroke-linecap="round" stroke-linejoin="round"/>
<path d="M129.056 443.395C159.48 432.183 175.054 398.431 163.841 368.007C152.629 337.584 118.877 322.01 88.453 333.222C58.0295 344.434 42.4557 378.187 53.668 408.61C64.8802 439.034 98.6327 454.608 129.056 443.395Z" fill="white" stroke="#263238" stroke-miterlimit="10" stroke-linecap="round" stroke-linejoin="round"/>
<path d="M157.72 360.887C157.283 359.534 156.799 358.202 156.269 356.894" stroke="#263238" stroke-miterlimit="10" stroke-linecap="round" stroke-linejoin="round"/>
<path d="M114.863 436.185C141.017 430.259 160.544 406.873 160.544 378.927C160.544 374.246 159.996 369.692 158.961 365.328" stroke="#263238" stroke-miterlimit="10" stroke-linecap="round" stroke-linejoin="round"/>
<path d="M84.377 434.996C89.892 436.711 95.756 437.635 101.835 437.635C104.994 437.635 108.095 437.386 111.119 436.905" stroke="#263238" stroke-miterlimit="10" stroke-linecap="round" stroke-linejoin="round"/>
<path d="M83.607 431.492C87.515 432.312 91.567 432.743 95.719 432.743C128.143 432.743 154.428 406.458 154.428 374.034C154.428 365.928 152.785 358.206 149.814 351.182" stroke="#263238" stroke-miterlimit="10" stroke-linecap="round" stroke-linejoin="round"/>
<path d="M137.837 399.073C143.192 390.219 146.274 379.836 146.274 368.734C146.274 360.639 144.635 352.926 141.672 345.909" stroke="#263238" stroke-miterlimit="10" stroke-linecap="round" stroke-linejoin="round"/>
<path d="M81.054 427.085C83.192 427.321 85.364 427.442 87.565 427.442C107.64 427.442 125.362 417.366 135.949 401.996" stroke="#263238" stroke-miterlimit="10" stroke-linecap="round" stroke-linejoin="round"/>
<path d="M62.957 386.051C65.463 396.15 70.686 405.711 78.62 413.569C82.772 417.681 87.384 421.047 92.288 423.666" stroke="#263238" stroke-miterlimit="10" stroke-linecap="round" stroke-linejoin="round"/>
<path d="M96.229 420.521C97.664 421.434 99.129 422.279 100.621 423.055" stroke="#263238" stroke-miterlimit="10" stroke-linecap="round" stroke-linejoin="round"/>
<path d="M69.955 381.508C72.034 392.939 77.518 403.87 86.399 412.666C88.635 414.88 91.004 416.878 93.48 418.659" stroke="#263238" stroke-miterlimit="10" stroke-linecap="round" stroke-linejoin="round"/>
<path d="M79.842 381.369C82.165 392.099 87.521 402.301 95.903 410.602C99.743 414.405 103.976 417.569 108.469 420.095" stroke="#263238" stroke-miterlimit="10" stroke-linecap="round" stroke-linejoin="round"/>
<path d="M78.804 374.798C78.945 376.201 79.137 377.599 79.378 378.99" stroke="#263238" stroke-miterlimit="10" stroke-linecap="round" stroke-linejoin="round"/>
<path d="M125.185 347.707C125.504 349.161 125.765 350.617 125.97 352.072" stroke="#263238" stroke-miterlimit="10" stroke-linecap="round" stroke-linejoin="round"/>
<path d="M119.103 331.616C120.756 334.59 122.173 337.749 123.321 341.077C123.717 342.226 124.076 343.38 124.397 344.535" stroke="#263238" stroke-miterlimit="10" stroke-linecap="round" stroke-linejoin="round"/>
<path d="M110.195 331.048C113.96 335.948 117.009 341.532 119.134 347.696C119.469 348.668 119.777 349.643 120.058 350.619" stroke="#263238" stroke-miterlimit="10" stroke-linecap="round" stroke-linejoin="round"/>
<path d="M98.063 331.898C102.776 336.362 106.796 341.657 109.872 347.661" stroke="#263238" stroke-miterlimit="10" stroke-linecap="round" stroke-linejoin="round"/>
<path d="M128.559 356.676C130.221 357.608 131.853 358.629 133.45 359.741C137.051 362.248 140.285 365.086 143.139 368.186" stroke="#263238" stroke-miterlimit="10" stroke-linecap="round" stroke-linejoin="round"/>
<path d="M54.04 371.266C71.341 349.575 101.403 343.147 125.885 355.265" stroke="#263238" stroke-miterlimit="10" stroke-linecap="round" stroke-linejoin="round"/>
<path d="M59.72 373.412C79.487 354.36 110.584 351.272 133.97 367.555C137.245 369.835 140.216 372.389 142.874 375.164" stroke="#263238" stroke-miterlimit="10" stroke-linecap="round" stroke-linejoin="round"/>
<path d="M52.243 382.189C53.913 379.79 55.731 377.554 57.674 375.485" stroke="#263238" stroke-miterlimit="10" stroke-linecap="round" stroke-linejoin="round"/>
<path d="M137.317 380.036C139.062 381.462 140.705 382.971 142.245 384.554" stroke="#263238" stroke-miterlimit="10" stroke-linecap="round" stroke-linejoin="round"/>
<path d="M51.933 391.909C70.46 365.3 107.051 358.748 133.66 377.275" stroke="#263238" stroke-miterlimit="10" stroke-linecap="round" stroke-linejoin="round"/>
<path d="M91.0169 389.032L101.244 408.373L98.991 408.373L88.7765 389.032L91.0169 389.032Z" fill="#717171"/>
<path d="M95.7618 389.135L105.989 408.476L103.736 408.476L93.5214 389.135L95.7618 389.135Z" fill="#717171"/>
<path d="M121.132 375.48L123.521 375.48L109.175 402.82L108.022 400.5L121.132 375.48Z" fill="#717171"/>
<path d="M125.813 375.546L128.24 375.546L111.371 407.004L110.211 404.669L125.813 375.546Z" fill="#717171"/>
<path d="M116.668 375.422L119.052 375.422L106.918 398.51L105.655 396.401L116.668 375.422Z" fill="#717171"/>
<path d="M100.111 389.031L110.339 408.373L108.085 408.373L97.8709 389.031L100.111 389.031Z" fill="#717171"/>
</svg>
