<svg width="100" height="100" viewBox="0 0 800 800" fill="none" xmlns="http://www.w3.org/2000/svg">
<g clip-path="url(#clip0_207_9)">
<path d="M480.057 208.964L434.062 478.658L525.429 402.67L645.129 609.993L749.283 549.861L629.583 342.536L736.665 303.947L480.057 208.964Z" fill="#F4A026"/>
<path d="M761.985 542.528L651.053 350.388L741.638 317.747C747.433 315.659 751.306 310.172 751.333 304.012C751.36 297.853 747.534 292.332 741.758 290.194L485.148 195.209C481.053 193.696 476.502 194.081 472.721 196.263C468.943 198.445 466.333 202.197 465.599 206.499L419.604 476.192C418.572 482.245 421.417 488.3 426.737 491.366C432.053 494.434 438.721 493.862 443.441 489.936L521.43 425.074L632.429 617.331C634.373 620.699 637.577 623.158 641.334 624.164C642.584 624.5 643.859 624.664 645.13 624.664C647.682 624.664 650.216 623.998 652.464 622.699L756.618 562.565C763.632 558.512 766.034 549.543 761.985 542.528ZM650.498 589.959L538.131 395.335C535.969 391.589 532.265 388.99 528.008 388.229C527.15 388.076 526.287 388.001 525.429 388.001C522.031 388.001 518.706 389.185 516.05 391.393L455.19 442.011L491.542 228.856L693.914 303.766L624.611 328.737C620.525 330.209 617.301 333.417 615.808 337.498C614.315 341.577 614.709 346.109 616.879 349.871L729.246 544.495L650.498 589.959Z" fill="black"/>
<path d="M405.904 177.838L323.093 155.649C315.267 153.55 307.228 158.196 305.131 166.02C303.033 173.843 307.677 181.885 315.502 183.982L398.315 206.171C399.587 206.511 400.863 206.676 402.12 206.676C408.595 206.676 414.521 202.354 416.277 195.8C418.373 187.978 413.729 179.936 405.904 177.838Z" fill="black"/>
<path d="M499.929 147.507C501.201 147.847 502.476 148.012 503.733 148.012C510.209 148.012 516.135 143.69 517.891 137.136L540.08 54.325C542.178 46.5015 537.534 38.4595 529.71 36.363C521.88 34.2654 513.844 38.9103 511.748 46.7338L489.558 129.545C487.461 137.366 492.104 145.409 499.929 147.507Z" fill="black"/>
<path d="M424.562 142.896C427.279 147.601 432.207 150.232 437.278 150.232C439.765 150.232 442.286 149.598 444.596 148.264C451.611 144.212 454.015 135.244 449.965 128.229L416.964 71.0703C412.912 64.0564 403.948 61.6517 396.93 65.7021C389.914 69.7535 387.511 78.7213 391.561 85.7364L424.562 142.896Z" fill="black"/>
<path d="M62.7409 102.733L75.2529 119.89L55.8238 134.059L69.4957 152.807L88.9248 138.637L101.492 155.87L45.9695 196.361L33.4024 179.129L55.8613 162.75L42.1894 144.002L19.7304 160.381L7.21852 143.225L62.7409 102.733ZM88.3619 235.239L74.1099 215.696L62.9835 219.691L50.1954 202.156L120.937 182.533L134.581 201.242L94.2771 262.602L81.1852 244.65L88.3619 235.239ZM97.7438 222.885L113.229 202.194L88.8226 210.652L97.7438 222.885ZM155.207 346.15L141.121 326.835L150.614 309.701C152.837 305.643 154.043 302.868 154.232 301.377C154.446 299.867 153.982 298.33 152.84 296.764L130.874 312.784L118.389 295.665L140.356 279.645C139.196 278.055 137.864 277.131 136.362 276.873C134.884 276.597 131.883 276.91 127.358 277.812L108.142 281.614L94.0561 262.299L114.74 258.76C120.466 257.755 124.986 257.456 128.3 257.863C131.657 258.277 134.611 259.41 137.161 261.263C136.586 258.937 136.518 256.801 136.957 254.857C137.42 252.894 138.558 250.556 140.37 247.843C142.225 245.136 143.192 242.671 143.272 240.447C143.352 238.222 142.324 235.646 140.188 232.717L139.553 231.846L151.293 223.284C155.897 229.596 158.947 234.469 160.445 237.901C161.943 241.334 162.404 244.247 161.828 246.639C161.296 249.039 159.779 252.156 157.278 255.992C153.877 261.14 151.988 264.49 151.611 266.042C151.234 267.593 151.56 269.154 152.589 270.724L173.912 255.174L186.396 272.293L165.073 287.843C166.236 289.277 167.613 290.052 169.205 290.167C170.798 290.282 174.574 289.52 180.534 287.881C184.932 286.646 188.355 286.142 190.802 286.369C193.274 286.577 195.916 287.919 198.727 290.394C201.537 292.869 205.245 297.263 209.848 303.575L198.107 312.138L197.472 311.267C195.336 308.338 193.197 306.571 191.055 305.968C188.913 305.364 186.26 305.519 183.098 306.433C179.961 307.328 177.387 307.697 175.376 307.539C173.409 307.388 171.406 306.683 169.366 305.424C170.345 308.462 170.508 311.63 169.858 314.928C169.233 318.208 167.579 322.411 164.898 327.538L155.207 346.15ZM215.121 311.681L231.583 334.254L204.152 367.602L244.26 351.638L260.667 374.134L205.144 414.625L194.925 400.612L237.267 369.733L186.998 389.743L177.745 377.055L212.188 335.344L169.846 366.223L159.599 352.172L215.121 311.681ZM307.427 438.254L251.905 478.745L240.139 462.611L270.627 440.377L224.975 441.819L213.182 425.647L268.704 385.156L280.498 401.327L249.783 423.727L295.744 422.234L307.427 438.254ZM328.809 536.546L335.23 554.896C330.277 556.961 325.594 557.939 321.183 557.83C316.772 557.721 312.668 556.576 308.872 554.393C305.094 552.236 301.391 548.671 297.764 543.697C293.363 537.662 290.634 532.091 289.578 526.982C288.565 521.881 289.255 516.33 291.648 510.33C294.041 504.331 298.684 498.817 305.577 493.79C314.768 487.088 323.602 484.378 332.079 485.66C340.6 486.95 348.12 492.063 354.638 501.002C359.738 507.995 362.329 514.518 362.411 520.57C362.511 526.647 360.341 532.793 355.901 539.009L341.482 526.318C342.787 524.554 343.619 523.097 343.978 521.945C344.592 520.028 344.745 518.117 344.44 516.213C344.134 514.309 343.355 512.498 342.103 510.781C339.267 506.893 335.529 505.055 330.888 505.268C327.424 505.397 323.204 507.275 318.23 510.902C312.069 515.395 308.522 519.413 307.586 522.958C306.677 526.483 307.455 529.938 309.923 533.321C312.317 536.603 315.043 538.406 318.101 538.728C321.178 539.075 324.747 538.348 328.809 536.546ZM376.649 574.062C384.376 570.709 391.712 570.136 398.658 572.341C405.604 574.547 411.821 579.412 417.308 586.936C424.066 596.203 426.784 605.127 425.463 613.71C424.16 622.319 419.014 629.901 410.025 636.456C400.658 643.287 391.667 646.073 383.051 644.814C374.462 643.536 366.917 638.441 360.417 629.528C353.585 620.161 350.716 611.559 351.808 603.723C352.926 595.868 356.533 589.119 362.628 583.475L358.153 577.34L335.732 593.691L323.248 576.572L378.77 536.081L391.254 553.2L371.788 567.397L376.649 574.062ZM372.852 619.531C375.632 623.344 378.965 625.342 382.85 625.525C386.761 625.69 391.746 623.563 397.806 619.144C407.931 611.76 410.139 604.154 404.431 596.327C398.852 588.677 390.735 588.737 380.08 596.507C369.627 604.13 367.217 611.805 372.852 619.531ZM419.106 733.392L409.024 719.568L421.106 710.758L395.253 675.308L383.172 684.119L373.118 670.333L398.001 652.187L402.172 657.906C413.473 654.575 424.755 648.804 436.016 640.592L448.4 631.56L482.346 678.106L439.624 709.262L443.988 715.246L419.106 733.392ZM427.112 692.105L456.199 670.893L446.146 657.107L445.426 657.632C437.75 663.23 427.346 668.825 414.214 674.418L427.112 692.105ZM470.182 758.801L455.93 739.258L444.804 743.253L432.016 725.718L502.757 706.095L516.401 724.804L476.097 786.164L463.006 768.212L470.182 758.801ZM479.564 746.447L495.049 725.756L470.643 734.214L479.564 746.447Z" fill="black"/>
</g>
<defs>
<clipPath id="clip0_207_9">
<rect width="800" height="800" fill="white"/>
</clipPath>
</defs>
</svg>
