<svg width="445" height="445" viewBox="0 0 445 445" fill="none" xmlns="http://www.w3.org/2000/svg">
<g filter="url(#filter0_d_44_172)">
<circle cx="212.141" cy="212" r="200" fill="#F2F4F5"/>
</g>
<g filter="url(#filter1_i_44_172)">
<circle cx="212.141" cy="212" r="173.972" fill="#F2F4F5"/>
</g>
<g filter="url(#filter2_d_44_172)">
<path fill-rule="evenodd" clip-rule="evenodd" d="M168.719 162.417L182.992 176.69C188.802 182.499 188.802 191.917 182.992 197.727C177.183 203.535 167.765 203.535 161.956 197.727L122.289 158.06C116.48 152.251 116.48 142.833 122.289 137.023L161.956 97.3568C167.765 91.5477 177.183 91.5477 182.992 97.3568C188.802 103.166 188.802 112.584 182.992 118.393L168.719 132.667H212.141C266.909 132.667 311.308 177.065 311.308 231.833C311.308 286.601 266.909 331 212.141 331C157.373 331 112.974 286.601 112.974 231.833C112.974 223.618 119.634 216.958 127.849 216.958C136.064 216.958 142.724 223.618 142.724 231.833C142.724 270.171 173.803 301.25 212.141 301.25C250.479 301.25 281.558 270.171 281.558 231.833C281.558 193.496 250.479 162.417 212.141 162.417H168.719ZM222.058 192.167V231.833H241.891C247.368 231.833 251.808 236.273 251.808 241.75C251.808 247.227 247.368 251.667 241.891 251.667H212.141C206.664 251.667 202.224 247.227 202.224 241.75V192.167C202.224 186.69 206.664 182.25 212.141 182.25C217.618 182.25 222.058 186.69 222.058 192.167Z" fill="#F2F4F5"/>
</g>
<defs>
<filter id="filter0_d_44_172" x="0.940868" y="0.799999" width="443.4" height="443.4" filterUnits="userSpaceOnUse" color-interpolation-filters="sRGB">
<feFlood flood-opacity="0" result="BackgroundImageFix"/>
<feColorMatrix in="SourceAlpha" type="matrix" values="0 0 0 0 0 0 0 0 0 0 0 0 0 0 0 0 0 0 127 0" result="hardAlpha"/>
<feOffset dx="10.5" dy="10.5"/>
<feGaussianBlur stdDeviation="10.85"/>
<feComposite in2="hardAlpha" operator="out"/>
<feColorMatrix type="matrix" values="0 0 0 0 0 0 0 0 0 0 0 0 0 0 0 0 0 0 0.25 0"/>
<feBlend mode="normal" in2="BackgroundImageFix" result="effect1_dropShadow_44_172"/>
<feBlend mode="normal" in="SourceGraphic" in2="effect1_dropShadow_44_172" result="shape"/>
</filter>
<filter id="filter1_i_44_172" x="38.1689" y="38.028" width="350.444" height="357.444" filterUnits="userSpaceOnUse" color-interpolation-filters="sRGB">
<feFlood flood-opacity="0" result="BackgroundImageFix"/>
<feBlend mode="normal" in="SourceGraphic" in2="BackgroundImageFix" result="shape"/>
<feColorMatrix in="SourceAlpha" type="matrix" values="0 0 0 0 0 0 0 0 0 0 0 0 0 0 0 0 0 0 127 0" result="hardAlpha"/>
<feOffset dx="2.5" dy="9.5"/>
<feGaussianBlur stdDeviation="16.45"/>
<feComposite in2="hardAlpha" operator="arithmetic" k2="-1" k3="1"/>
<feColorMatrix type="matrix" values="0 0 0 0 0 0 0 0 0 0 0 0 0 0 0 0 0 0 0.25 0"/>
<feBlend mode="normal" in2="shape" result="effect1_innerShadow_44_172"/>
</filter>
<filter id="filter2_d_44_172" x="74.3742" y="58.4" width="275.533" height="315.2" filterUnits="userSpaceOnUse" color-interpolation-filters="sRGB">
<feFlood flood-opacity="0" result="BackgroundImageFix"/>
<feColorMatrix in="SourceAlpha" type="matrix" values="0 0 0 0 0 0 0 0 0 0 0 0 0 0 0 0 0 0 127 0" result="hardAlpha"/>
<feOffset dy="4"/>
<feGaussianBlur stdDeviation="19.3"/>
<feComposite in2="hardAlpha" operator="out"/>
<feColorMatrix type="matrix" values="0 0 0 0 0 0 0 0 0 0 0 0 0 0 0 0 0 0 0.25 0"/>
<feBlend mode="normal" in2="BackgroundImageFix" result="effect1_dropShadow_44_172"/>
<feBlend mode="normal" in="SourceGraphic" in2="effect1_dropShadow_44_172" result="shape"/>
</filter>
</defs>
</svg>
