<svg class="header__logo svelte-d56avp" width="320" viewBox="0 0 690 748" fill="none" xmlns="http://www.w3.org/2000/svg">
<path d="M560 30.5C560 58.7342 554.439 86.692 543.634 112.777C532.829 138.862 516.993 162.563 497.028 182.528C477.063 202.493 453.362 218.329 427.277 229.134C401.192 239.939 373.234 245.5 345 245.5C316.766 245.5 288.808 239.939 262.723 229.134C236.638 218.329 212.937 202.493 192.972 182.528C173.007 162.563 157.171 138.862 146.366 112.777C135.561 86.6919 130 58.7342 130 30.5" stroke="white" stroke-width="59.5" stroke-linecap="round"/>
<path d="M660 30.5C660 71.8664 651.852 112.828 636.022 151.045C620.192 189.263 596.989 223.988 567.739 253.239C538.488 282.489 503.763 305.692 465.545 321.522C447.083 329.17 410 334.066 408.5 339.033C407 344 408.5 364.5 408.5 364.5V654.5C408.5 689.57 380.07 718 345 718C309.93 718 281.5 689.57 281.5 654.5V368.154C281.5 365.719 281.592 363.293 281.732 360.862C282.084 354.739 282.603 342.686 281.5 339.033C280 334.066 242.917 329.17 224.455 321.522C186.237 305.692 151.512 282.489 122.261 253.239C93.0109 223.988 69.8082 189.263 53.9779 151.045C38.1477 112.828 30 71.8664 30 30.5" stroke="white" stroke-width="59.5" stroke-linecap="round"/>
</svg>
