<svg width="228" height="227" viewBox="0 0 228 227" fill="none" xmlns="http://www.w3.org/2000/svg">
<path d="M160.189 59.1985C158.626 59.2712 157.154 59.7255 155.845 60.2344H155.827C154.5 60.7614 148.194 63.4147 138.617 67.4309C129.04 71.4653 116.61 76.6991 104.27 81.8966C79.6279 92.2733 55.4033 102.487 55.4033 102.487L55.6941 102.377C55.6941 102.377 54.0222 102.923 52.2776 104.122C51.3871 104.704 50.4058 105.503 49.5516 106.757C48.6975 108.011 48.0069 109.937 48.2613 111.918C48.6793 115.28 50.8601 117.297 52.423 118.406C54.004 119.533 55.5124 120.06 55.5124 120.06H55.5487L78.2649 127.711C79.2826 130.982 85.1888 150.39 86.6063 154.861C87.4422 157.532 88.26 159.204 89.2777 160.476C89.7684 161.131 90.3499 161.676 91.0405 162.112C91.3131 162.276 91.6038 162.403 91.8946 162.512C91.9855 162.566 92.0763 162.584 92.1854 162.603L91.9491 162.548C92.0218 162.566 92.0763 162.621 92.1309 162.639C92.3126 162.694 92.4398 162.712 92.676 162.748C96.2743 163.838 99.1638 161.603 99.1638 161.603L99.3274 161.476L112.739 149.264L135.219 166.51L135.728 166.728C140.416 168.781 145.16 167.637 147.667 165.619C150.193 163.584 151.175 160.985 151.175 160.985L151.338 160.567L168.712 71.5743C169.202 69.3754 169.33 67.3218 168.784 65.3228C168.239 63.3238 166.84 61.452 165.15 60.4525C163.442 59.4348 161.751 59.1258 160.189 59.1985ZM159.716 68.7393C159.698 69.0301 159.752 68.9938 159.625 69.5571V69.6116L142.415 157.678C142.343 157.805 142.216 158.078 141.87 158.35C141.507 158.641 141.216 158.823 139.708 158.223L112.212 137.142L95.6019 152.28L99.0911 130C99.0911 130 142.161 89.8563 144.015 88.1299C145.868 86.4034 145.25 86.04 145.25 86.04C145.378 83.9319 142.452 85.4221 142.452 85.4221L85.8067 120.514L85.7885 120.423L58.6381 111.282V111.264C58.6199 111.264 58.5836 111.246 58.5654 111.246C58.5836 111.246 58.7108 111.191 58.7108 111.191L58.8562 111.119L59.0016 111.064C59.0016 111.064 83.2443 100.851 107.887 90.4742C120.226 85.2767 132.657 80.0429 142.216 76.0085C151.775 71.9923 158.844 69.0483 159.244 68.8847C159.625 68.7393 159.443 68.7393 159.716 68.7393Z" fill="#004444"/>
<circle cx="113.718" cy="113.5" r="108.75" stroke="#004444" stroke-width="9.5"/>
</svg>
