<svg class="yusra-icon-grey" width="30px" height="30px" viewBox="0 0 302 303" fill="none" xmlns="http://www.w3.org/2000/svg">
<path d="M30.6483 131.746L101.179 265.127L85.6384 265.127L15.1982 131.746L30.6483 131.746Z" fill="#717171"/>
<path d="M63.3697 132.46L133.9 265.841L118.36 265.841L47.9196 132.46L63.3697 132.46Z" fill="#717171"/>
<path d="M238.327 38.2965L254.803 38.2965L155.868 226.832L147.919 210.832L238.327 38.2965Z" fill="#717171"/>
<path d="M270.604 38.7471L287.34 38.7471L171.011 255.69L163.015 239.582L270.604 38.7471Z" fill="#717171"/>
<path d="M207.54 37.8938L223.982 37.8942L140.301 197.111L131.596 182.565L207.54 37.8938Z" fill="#717171"/>
<path d="M93.3647 131.746L163.895 265.127L148.355 265.127L77.9146 131.746L93.3647 131.746Z" fill="#717171"/>
</svg>
